<svg width="27" height="20" viewBox="0 0 27 20" fill="none" xmlns="http://www.w3.org/2000/svg">
<path d="M21.4889 19.2363C19.8385 19.2363 18.9303 18.377 18.9303 16.8047V3.11328C18.9303 1.54102 19.8385 0.671875 21.4889 0.671875H23.9303C25.5807 0.671875 26.4987 1.54102 26.4987 3.11328V16.8047C26.4987 18.377 25.5807 19.2363 23.9303 19.2363H21.4889ZM21.8014 17.4785H23.6178C24.3307 17.4785 24.6139 17.2051 24.6139 16.502V3.40625C24.6139 2.71289 24.3307 2.43945 23.6178 2.43945H21.8014C21.0885 2.43945 20.8151 2.71289 20.8151 3.40625V16.502C20.8151 17.2051 21.0885 17.4785 21.8014 17.4785ZM12.446 19.2363C10.7858 19.2363 9.88736 18.377 9.88736 16.8047V5.96484C9.88736 4.39258 10.7858 3.52344 12.446 3.52344H14.8776C16.528 3.52344 17.446 4.39258 17.446 5.96484V16.8047C17.446 18.377 16.528 19.2363 14.8776 19.2363H12.446ZM12.7585 17.4785H14.5749C15.2878 17.4785 15.5612 17.2051 15.5612 16.502V6.25781C15.5612 5.56445 15.2878 5.28125 14.5749 5.28125H12.7585C12.0456 5.28125 11.7624 5.56445 11.7624 6.25781V16.502C11.7624 17.2051 12.0456 17.4785 12.7585 17.4785ZM3.39322 19.2363C1.74283 19.2363 0.834625 18.377 0.834625 16.8047V8.81641C0.834625 7.24414 1.74283 6.375 3.39322 6.375H5.82486C7.48502 6.375 8.39322 7.24414 8.39322 8.81641V16.8047C8.39322 18.377 7.48502 19.2363 5.82486 19.2363H3.39322ZM3.70572 17.4785H5.52213C6.23502 17.4785 6.51822 17.2051 6.51822 16.502V9.10938C6.51822 8.41602 6.23502 8.13281 5.52213 8.13281H3.70572C2.99283 8.13281 2.71939 8.41602 2.71939 9.10938V16.502C2.71939 17.2051 2.99283 17.4785 3.70572 17.4785Z" fill="#225CEE"/>
</svg>
