<svg width="23" height="20" viewBox="0 0 23 20" fill="none" xmlns="http://www.w3.org/2000/svg">
<path d="M11.3333 2.39062C12.2025 1.375 14.1068 0.466797 16.3529 0.466797C19.3607 0.466797 21.7728 2.01953 22.4173 3.49414V18.1523C22.4173 19.1094 21.7923 19.4805 21.099 19.4805C20.5814 19.4805 20.2884 19.3242 19.9564 19.0801C19.3118 18.5527 18.2083 17.918 16.3529 17.918C14.4876 17.918 13.2572 18.5723 12.6517 19.0215C12.3294 19.2363 11.9779 19.4805 11.3333 19.4805C10.6888 19.4805 10.3275 19.2559 10.015 19.0215C9.44856 18.543 8.17903 17.918 6.3138 17.918C4.45833 17.918 3.37434 18.543 2.71028 19.0801C2.37825 19.3242 2.08528 19.4805 1.5677 19.4805C0.874344 19.4805 0.249344 19.1094 0.249344 18.1523V3.49414C0.893875 2.01953 3.31575 0.466797 6.3138 0.466797C8.55989 0.466797 10.474 1.375 11.3333 2.39062ZM2.36848 4.16797V17.0781C3.35481 16.3262 4.78059 15.9355 6.3138 15.9355C7.83723 15.9355 9.27278 16.3262 10.2786 17.0488V4.16797C10.0443 3.5332 8.55013 2.42969 6.3138 2.42969C4.07747 2.42969 2.63216 3.52344 2.36848 4.16797ZM20.2982 4.16797C20.0345 3.52344 18.5892 2.42969 16.3529 2.42969C14.1165 2.42969 12.6224 3.5332 12.388 4.16797V17.0488C13.3939 16.3262 14.8294 15.9355 16.3529 15.9355C17.8861 15.9355 19.3118 16.3262 20.2982 17.0781V4.16797Z" fill="#225CEE"/>
</svg>
